<?xml version="1.0" encoding="UTF-8"?>
<svg version="1.1" xmlns="http://www.w3.org/2000/svg" width="512" height="512">
<path d="M0 0 C0.94488785 -0.00705963 1.8897757 -0.01411926 2.86329651 -0.02139282 C41.96677384 -0.24733053 41.96677384 -0.24733053 58.76953125 3.203125 C60.28836914 3.50114014 60.28836914 3.50114014 61.83789062 3.80517578 C107.81931389 13.00008292 151.82359037 34.02945703 185.93359375 66.51953125 C188.28465405 68.74429492 190.67326977 70.86533513 193.14453125 72.953125 C196.38848595 75.76364943 199.18154857 78.80160067 201.94921875 82.078125 C203.17045588 83.50377521 204.42682225 84.90001185 205.71484375 86.265625 C244.08377378 127.04146208 268.69274516 187.36138198 268.97265625 243.43359375 C268.97971588 244.3784816 268.98677551 245.32336945 268.99404907 246.29689026 C269.21998678 285.40036759 269.21998678 285.40036759 265.76953125 302.203125 C265.47151611 303.72196289 265.47151611 303.72196289 265.16748047 305.27148438 C255.97257333 351.25290764 234.94319922 395.25718412 202.453125 429.3671875 C200.22836133 431.7182478 198.10732112 434.10686352 196.01953125 436.578125 C193.20900682 439.8220797 190.17105558 442.61514232 186.89453125 445.3828125 C185.46888104 446.60404963 184.0726444 447.860416 182.70703125 449.1484375 C141.93119417 487.51736753 81.61127427 512.12633891 25.5390625 512.40625 C24.59417465 512.41330963 23.6492868 512.42036926 22.67576599 512.42764282 C-16.42771134 512.65358053 -16.42771134 512.65358053 -33.23046875 509.203125 C-34.24302734 509.00444824 -35.25558594 508.80577148 -36.29882812 508.60107422 C-82.28025139 499.40616708 -126.28452787 478.37679297 -160.39453125 445.88671875 C-162.74559155 443.66195508 -165.13420727 441.54091487 -167.60546875 439.453125 C-170.84942345 436.64260057 -173.64248607 433.60464933 -176.41015625 430.328125 C-177.63139338 428.90247479 -178.88775975 427.50623815 -180.17578125 426.140625 C-218.54471128 385.36478792 -243.15368266 325.04486802 -243.43359375 268.97265625 C-243.4441832 267.55532448 -243.4441832 267.55532448 -243.45498657 266.10935974 C-243.68092428 227.00588241 -243.68092428 227.00588241 -240.23046875 210.203125 C-240.03179199 209.19056641 -239.83311523 208.17800781 -239.62841797 207.13476562 C-230.43351083 161.15334236 -209.40413672 117.14906588 -176.9140625 83.0390625 C-174.68929883 80.6880022 -172.56825862 78.29938648 -170.48046875 75.828125 C-167.66994432 72.5841703 -164.63199308 69.79110768 -161.35546875 67.0234375 C-159.92981854 65.80220037 -158.5335819 64.545834 -157.16796875 63.2578125 C-116.39213167 24.88888247 -56.07221177 0.27991109 0 0 Z " fill="#FEFEFE" transform="translate(243.23046875,-0.203125)"/>
<path d="M0 0 C2.61411148 1.36249592 5.17626793 2.76397517 7.71411133 4.2644043 C8.70024414 4.84432129 9.68637695 5.42423828 10.70239258 6.02172852 C11.74137695 6.63677246 12.78036133 7.25181641 13.85083008 7.88549805 C16.0025971 9.15080226 18.15494308 10.41512241 20.30786133 11.6784668 C21.36312012 12.2977002 22.41837891 12.91693359 23.50561523 13.55493164 C29.80342329 17.22654056 36.16686362 20.78121228 42.53833008 24.32299805 C42.53833008 24.98299805 42.53833008 25.64299805 42.53833008 26.32299805 C41.81581055 26.73437012 41.09329102 27.14574219 40.34887695 27.56958008 C27.71381325 34.76709662 15.08654445 41.97473296 2.53833008 49.32299805 C-6.09662873 54.37933611 -14.7677333 59.36906937 -23.46166992 64.32299805 C-33.18006844 69.86123522 -42.86572085 75.45217085 -52.51977539 81.10205078 C-60.93693917 86.02591696 -69.38484787 90.89528987 -77.83911133 95.75512695 C-83.22143971 98.85508073 -88.58648518 101.98000367 -93.92260742 105.15893555 C-94.94080566 105.76535889 -95.95900391 106.37178223 -97.00805664 106.99658203 C-98.93657948 108.14830773 -100.86279903 109.30390149 -102.78637695 110.46386719 C-103.63828613 110.97296631 -104.49019531 111.48206543 -105.36791992 112.0065918 C-106.11364258 112.45574951 -106.85936523 112.90490723 -107.62768555 113.36767578 C-109.46166992 114.32299805 -109.46166992 114.32299805 -111.46166992 114.32299805 C-111.46166992 156.56299805 -111.46166992 198.80299805 -111.46166992 242.32299805 C-109.81166992 242.98299805 -108.16166992 243.64299805 -106.46166992 244.32299805 C-104.54511313 245.34814904 -102.64661462 246.40742973 -100.76245117 247.4909668 C-99.64918457 248.1291333 -98.53591797 248.7672998 -97.38891602 249.42480469 C-96.1839531 250.11995339 -94.97903902 250.81518675 -93.77416992 251.51049805 C-92.51732193 252.23268422 -91.26032081 252.95460395 -90.00317383 253.67626953 C-86.77529844 255.53042872 -83.54977643 257.38863758 -80.32513428 259.24841309 C-77.46641788 260.89691988 -74.60648538 262.54331492 -71.74682617 264.19018555 C-66.39169435 267.27611119 -61.03964859 270.36735344 -55.68823242 273.4597168 C-52.42642985 275.34334855 -49.16305148 277.22422126 -45.89916992 279.10424805 C-44.8142627 279.73049072 -43.72935547 280.3567334 -42.61157227 281.00195312 C-40.44413226 282.24854621 -38.27261894 283.48808608 -36.09692383 284.72021484 C-30.59463372 287.851691 -25.24144643 291.09279741 -19.98510742 294.6237793 C-10.04779061 301.7994089 -10.04779061 301.7994089 1.47973633 304.0222168 C4.56267367 302.52540249 7.10515021 300.8589692 9.7565918 298.69506836 C12.3592351 296.69084044 15.17943589 295.16948461 18.04638672 293.5769043 C20.48209981 292.22225087 22.88661047 290.82291036 25.28833008 289.40893555 C30.99025365 286.05677728 36.70087228 282.71966895 42.41333008 279.38549805 C43.42959473 278.7918042 44.44585937 278.19811035 45.49291992 277.58642578 C52.83818899 273.30022462 60.21356584 269.06957887 67.60424805 264.86230469 C74.27461511 261.05937817 80.91063049 257.19973676 87.53833008 253.32299805 C95.85543823 248.458074 104.20018514 243.64623249 112.57397461 238.87963867 C120.56770011 234.32222638 128.51587957 229.68795948 136.45825195 225.04174805 C138.3236646 223.95053848 140.18982562 222.8606068 142.05688477 221.7722168 C143.61277766 220.86354106 145.16596108 219.95019255 146.71508789 219.0300293 C151.3194156 216.32299805 151.3194156 216.32299805 153.53833008 216.32299805 C153.53833008 233.48299805 153.53833008 250.64299805 153.53833008 268.32299805 C146.93833008 271.95299805 140.33833008 275.58299805 133.53833008 279.32299805 C129.64969495 281.55473647 125.77334719 283.79394917 121.91333008 286.07299805 C119.87720069 287.26756932 117.84073003 288.46155905 115.80395508 289.6550293 C114.77592773 290.25782715 113.74790039 290.860625 112.6887207 291.48168945 C107.35951691 294.59644883 102.01170933 297.67881669 96.66333008 300.76049805 C95.5835791 301.38279297 94.50382813 302.00508789 93.39135742 302.64624023 C91.20118473 303.9082853 89.01091765 305.17016657 86.82055664 306.43188477 C81.39173065 309.55979953 75.96513727 312.69158253 70.53833008 315.82299805 C68.37167425 317.07301684 66.20500758 318.32301683 64.03833008 319.57299805 C62.96583008 320.19174805 61.89333008 320.81049805 60.78833008 321.44799805 C51.03833008 327.07299805 51.03833008 327.07299805 47.78344727 328.95068359 C45.63290465 330.19146838 43.48251216 331.4325134 41.33227539 332.67382812 C36.27455195 335.59319279 31.21538514 338.50996014 26.15075684 341.41732788 C23.76909506 342.78474571 21.38829988 344.15366843 19.00756836 345.52270508 C17.33506987 346.48364358 15.66132672 347.44241476 13.98754883 348.40112305 C12.96790039 348.98764648 11.94825195 349.57416992 10.89770508 350.1784668 C9.95217773 350.72035645 9.00665039 351.26224609 8.0324707 351.82055664 C5.94741386 353.07657072 4.04946596 354.40314364 2.11645508 355.8737793 C1.26567383 356.35202148 0.41489258 356.83026367 -0.46166992 357.32299805 C-3.91900208 356.22803961 -6.99124191 354.56066561 -10.13745117 352.77612305 C-11.03544434 352.26815186 -11.9334375 351.76018066 -12.85864258 351.23681641 C-13.8207666 350.68775635 -14.78289062 350.13869629 -15.77416992 349.57299805 C-16.78527832 348.99880127 -17.79638672 348.42460449 -18.83813477 347.83300781 C-27.12892171 343.11230916 -35.37299578 338.31290866 -43.60620117 333.49267578 C-51.00226336 329.16446263 -58.43028324 324.89564068 -65.87573242 320.65307617 C-73.98640243 316.02987082 -82.06604418 311.35415585 -90.14086914 306.66870117 C-92.43557181 305.33813089 -94.73157237 304.00983189 -97.02807617 302.68237305 C-103.77735891 298.78039918 -110.52367579 294.8737065 -117.25463867 290.94018555 C-118.26437744 290.35019775 -119.27411621 289.76020996 -120.31445312 289.15234375 C-122.22630333 288.03463958 -124.1376626 286.91609485 -126.04833984 285.79638672 C-136.14318586 279.8940617 -146.30659596 274.12589745 -156.46166992 268.32299805 C-156.46166992 208.92299805 -156.46166992 149.52299805 -156.46166992 88.32299805 C-148.87166992 84.03299805 -141.28166992 79.74299805 -133.46166992 75.32299805 C-127.26746139 71.69044538 -127.26746139 71.69044538 -121.08276367 68.04174805 C-106.576136 59.47982159 -91.92931841 51.1523321 -77.29467773 42.81176758 C-69.6350144 38.43836575 -62.02002547 33.98981092 -54.40698242 29.53588867 C-47.06452175 25.24490167 -39.69534268 21.00374791 -32.28979492 16.82250977 C-27.61613359 14.17213645 -23.00650765 11.44467669 -18.43823242 8.6159668 C-17.44001465 8.00438721 -16.44179687 7.39280762 -15.41333008 6.76269531 C-13.48423362 5.57667596 -11.56412005 4.37588612 -9.65454102 3.15869141 C-8.78651855 2.62767822 -7.91849609 2.09666504 -7.02416992 1.54956055 C-6.26233398 1.07083496 -5.50049805 0.59210938 -4.71557617 0.09887695 C-2.46166992 -0.67700195 -2.46166992 -0.67700195 0 0 Z " fill="#010101" transform="translate(257.461669921875,77.677001953125)"/>
<path d="M0 0 C0 16.17 0 32.34 0 49 C-3.63 51.02125 -7.26 53.0425 -11 55.125 C-21.7087167 61.10851744 -32.32684484 67.23506314 -42.91015625 73.4375 C-49.21570429 77.13213316 -55.54295124 80.78851471 -61.875 84.4375 C-62.95007813 85.05713623 -64.02515625 85.67677246 -65.1328125 86.31518555 C-67.31744958 87.57405983 -69.5021831 88.83276676 -71.68701172 90.09130859 C-80.45122255 95.14057906 -89.21164701 100.19641507 -97.97167969 105.25292969 C-100.92032698 106.95403579 -103.87022045 108.65296349 -106.8203125 110.3515625 C-108.56774414 111.35931292 -110.31514212 112.3671217 -112.0625 113.375 C-113.25927368 114.06287598 -113.25927368 114.06287598 -114.48022461 114.76464844 C-117.94082913 116.60672989 -117.94082913 116.60672989 -121 119 C-125.124548 119.41120467 -127.40839495 118.52606798 -130.9140625 116.40234375 C-131.83550049 115.85094727 -132.75693848 115.29955078 -133.70629883 114.73144531 C-134.66947021 114.13944336 -135.6326416 113.54744141 -136.625 112.9375 C-137.60815186 112.34420898 -138.59130371 111.75091797 -139.60424805 111.13964844 C-142.41135857 109.43989173 -145.20806155 107.72454072 -148 106 C-148.68755371 105.57541504 -149.37510742 105.15083008 -150.08349609 104.71337891 C-158.53127271 99.46872729 -158.53127271 99.46872729 -160 98 C-160.375 95.6875 -160.375 95.6875 -160 93 C-156.80659305 90.1287459 -153.39031239 87.93993008 -149.66796875 85.8203125 C-148.63462402 85.22855225 -147.6012793 84.63679199 -146.53662109 84.02709961 C-145.43141113 83.39940674 -144.32620117 82.77171387 -143.1875 82.125 C-141.42727278 81.11865594 -139.66797257 80.11070376 -137.90869141 79.10270691 C-136.70714465 78.41440925 -135.50531943 77.72659747 -134.30322266 77.03926086 C-128.4743255 73.70533676 -122.67213081 70.32633292 -116.875 66.9375 C-115.89281494 66.36394775 -114.91062988 65.79039551 -113.89868164 65.19946289 C-110.93210229 63.46691048 -107.96597877 61.73358033 -105 60 C-89.35866154 50.85781835 -73.68758096 41.76931394 -57.99023438 32.72363281 C-47.76484721 26.8295086 -37.54710166 20.92321983 -27.375 14.9375 C-26.69163574 14.53571533 -26.00827148 14.13393066 -25.30419922 13.7199707 C-21.60562732 11.54287467 -17.91469774 9.35363141 -14.23046875 7.15234375 C-13.05895264 6.45540405 -13.05895264 6.45540405 -11.86376953 5.74438477 C-10.35867176 4.84876696 -8.85564735 3.94965326 -7.35498047 3.04663086 C-2.22504143 0 -2.22504143 0 0 0 Z " fill="#010101" transform="translate(381,211)"/>
<path d="M0 0 C3.02593526 1.5611549 5.99898363 3.17896305 8.95361328 4.87207031 C9.54905441 5.21251877 10.14449554 5.55296722 10.75798035 5.9037323 C12.0136044 6.62252138 13.26833518 7.34287291 14.5222168 8.06469727 C16.415882 9.15456434 18.31240567 10.23930951 20.20947266 11.32324219 C26.42338193 14.882059 32.58518123 18.49742237 38.62158203 22.35253906 C36.23033329 24.99837503 33.6851313 26.61085161 30.59033203 28.36425781 C29.56633301 28.94876709 28.54233398 29.53327637 27.48730469 30.13549805 C25.82127197 31.07824585 25.82127197 31.07824585 24.12158203 32.04003906 C21.742315 33.3965127 19.36538445 34.75705021 16.98876953 36.11816406 C16.37770355 36.46769638 15.76663757 36.8172287 15.13705444 37.17735291 C8.79786179 40.81040115 2.52152884 44.5473314 -3.75341797 48.29003906 C-13.60035038 54.15343648 -23.5110608 59.8886873 -33.47302246 65.55340576 C-42.08051014 70.44905153 -50.63366896 75.42713075 -59.14648438 80.4855957 C-69.47853075 86.61687693 -79.89828238 92.59533702 -90.31201172 98.58642578 C-95.6573496 101.66510207 -100.99397189 104.75880715 -106.33032227 107.85302734 C-107.70226253 108.64813088 -109.0753174 109.44131563 -110.44970703 110.23217773 C-111.75577088 110.99085204 -113.05448834 111.76229139 -114.34619141 112.54516602 C-119.07256774 115.37248582 -119.07256774 115.37248582 -122.25341797 115.16503906 C-124.37841797 114.35253906 -124.37841797 114.35253906 -125.37841797 113.35253906 C-125.76835339 107.46005782 -125.86367169 101.56624902 -125.94824219 95.66235352 C-125.98486888 93.67268122 -126.03940681 91.68325382 -126.11230469 89.69458008 C-126.70410226 73.30833255 -126.70410226 73.30833255 -123.71728516 68.90185547 C-121.33443084 67.28017597 -119.08207288 66.3418321 -116.37841797 65.35253906 C-114.59298513 64.35211826 -112.82240288 63.32482966 -111.06591797 62.27441406 C-109.17178857 61.21407283 -107.27589059 60.15688595 -105.37841797 59.10253906 C-98.57079037 55.2876732 -91.77866295 51.4572917 -85.06591797 47.47753906 C-78.05251574 43.32388772 -71.00315486 39.23510262 -63.94091797 35.16503906 C-62.83675537 34.52856445 -61.73259277 33.89208984 -60.5949707 33.23632812 C-54.9656174 29.99263814 -49.33447954 26.75206044 -43.70263672 23.51269531 C-42.61289551 22.88508301 -41.5231543 22.2574707 -40.40039062 21.61083984 C-38.23335859 20.36352712 -36.0650788 19.1183795 -33.89550781 17.87548828 C-28.55824101 14.8082901 -23.26610528 11.68872774 -18.03076172 8.45019531 C-17.0249707 7.83418457 -16.01917969 7.21817383 -14.98291016 6.58349609 C-13.08462521 5.41637179 -11.19533651 4.23444418 -9.31689453 3.03564453 C-8.47481445 2.52018066 -7.63273437 2.0047168 -6.76513672 1.47363281 C-5.67011841 0.78418579 -5.67011841 0.78418579 -4.55297852 0.08081055 C-2.37841797 -0.64746094 -2.37841797 -0.64746094 0 0 Z " fill="#010101" transform="translate(318.37841796875,147.6474609375)"/>
<path d="M0 0 C2.35866164 2.35866164 2.25710499 2.82034239 2.29052734 6.01904297 C2.3096669 7.2607576 2.3096669 7.2607576 2.32919312 8.52755737 C2.33141876 9.42338531 2.33364441 10.31921326 2.3359375 11.2421875 C2.3425943 12.1621048 2.3492511 13.08202209 2.35610962 14.02981567 C2.36624631 15.97835283 2.37092633 17.92692478 2.37060547 19.87548828 C2.37497272 22.85637764 2.41126468 25.83577966 2.44921875 28.81640625 C2.45508788 30.70832826 2.45905663 32.60025732 2.4609375 34.4921875 C2.47530853 35.38396698 2.48967957 36.27574646 2.50448608 37.19454956 C2.45895569 43.36648858 2.45895569 43.36648858 0.23730469 46.43310547 C-1.89328125 47.92525961 -3.98081298 49.32019863 -6.2578125 50.578125 C-7.04800781 51.01640625 -7.83820313 51.4546875 -8.65234375 51.90625 C-9.46832031 52.3496875 -10.28429687 52.793125 -11.125 53.25 C-12.36056641 53.93835938 -12.36056641 53.93835938 -13.62109375 54.640625 C-19.72995722 58 -19.72995722 58 -22 58 C-22.27965743 51.29323713 -22.47182356 44.58798189 -22.60424805 37.87670898 C-22.65945981 35.5958642 -22.73445186 33.31540694 -22.82983398 31.03588867 C-23.60372536 12.06106534 -23.60372536 12.06106534 -19.67822266 7.01611328 C-16.8105044 5.18630011 -14.21393143 4.08060483 -11 3 C-10.12174561 2.46689209 -9.24349121 1.93378418 -8.33862305 1.38452148 C-5.36338141 -0.37689362 -3.40171906 -0.37796878 0 0 Z " fill="#060606" transform="translate(409,197)"/>
<path d="M0 0 C2.32080078 1.10400391 2.32080078 1.10400391 4.6953125 2.4765625 C5.5716333 2.97961914 6.4479541 3.48267578 7.35083008 4.00097656 C8.26630615 4.5369043 9.18178223 5.07283203 10.125 5.625 C11.06045654 6.16608398 11.99591309 6.70716797 12.9597168 7.26464844 C19.41211408 11.01644639 25.78395242 14.86567328 32 19 C31.984375 22.1875 31.984375 22.1875 31 26 C28.69913178 28.20213135 26.07036921 29.55505732 23.25 31 C22.53328125 31.40605469 21.8165625 31.81210938 21.078125 32.23046875 C15.80192982 35.07224299 15.80192982 35.07224299 12.59887695 34.78369141 C9.61318043 33.88335455 7.1770541 32.62671906 4.46484375 31.0859375 C3.40716797 30.48910156 2.34949219 29.89226562 1.25976562 29.27734375 C0.16341797 28.64957031 -0.93292969 28.02179688 -2.0625 27.375 C-3.13177734 26.77042969 -4.20105469 26.16585937 -5.30273438 25.54296875 C-12.57115635 21.42346433 -19.79226529 17.2245807 -27 13 C-23.45560561 9.17907267 -19.08421809 6.86794936 -14.625 4.25 C-13.34882813 3.47076172 -13.34882813 3.47076172 -12.046875 2.67578125 C-11.21929687 2.18980469 -10.39171875 1.70382813 -9.5390625 1.203125 C-8.78834473 0.75614258 -8.03762695 0.30916016 -7.26416016 -0.15136719 C-4.36630262 -1.23751694 -2.93101473 -0.92549356 0 0 Z " fill="#040404" transform="translate(351,131)"/>
</svg>
